<svg width="64" height="64" viewBox="0 0 64 64" fill="none" xmlns="http://www.w3.org/2000/svg">
<circle cx="32" cy="32" r="29.5" fill="white" stroke="#FFC84B" stroke-width="5"/>
<path fill-rule="evenodd" clip-rule="evenodd" d="M49.5575 39.0334H43.9055C43.779 39.0334 43.6524 38.9701 43.5681 38.8647C43.4837 38.7592 43.4626 38.6116 43.5048 38.4851C43.5681 38.2953 43.6102 38.0844 43.6102 37.8735C43.6102 36.7979 42.7245 35.891 41.6278 35.891C40.5311 35.891 39.6454 36.7979 39.6454 37.8735C39.6454 38.0844 39.6876 38.2953 39.7508 38.4851C39.793 38.6116 39.7508 38.7592 39.6876 38.8647C39.6032 38.9701 39.4767 39.0334 39.3501 39.0334H24.6507C24.5241 39.0334 24.3976 38.9701 24.3132 38.8647C24.2289 38.7592 24.2078 38.6116 24.25 38.4851C24.3132 38.2953 24.3554 38.0844 24.3554 37.8735C24.3554 36.7979 23.4696 35.891 22.373 35.891C21.2763 35.891 20.3906 36.7979 20.3906 37.8735C20.3906 38.0844 20.4116 38.2742 20.4749 38.464C20.496 38.5062 20.5171 38.5694 20.5171 38.6116C20.5171 38.8436 20.3273 39.0334 20.0953 39.0334H14.4433C14.2113 39.0334 14.0215 38.8436 14.0215 38.6116V30.7663C14.0215 30.703 14.0215 30.6608 14.0426 30.6186L16.6155 23.5747C16.6788 23.406 16.8475 23.3005 17.0162 23.3005H48.9881C49.5364 23.3005 49.9793 23.7223 49.9793 24.2496V38.6116C49.9793 38.8436 49.7895 39.0334 49.5575 39.0334Z" fill="#FFDC5A"/>
<path fill-rule="evenodd" clip-rule="evenodd" d="M34.4362 39.0334H29.5645V33.5501C29.5645 33.3181 29.7543 33.1283 29.9862 33.1283H34.0144C34.2464 33.1283 34.4362 33.3181 34.4362 33.5501V39.0334Z" fill="#FFC84B"/>
<path fill-rule="evenodd" clip-rule="evenodd" d="M32.4119 39.0334H31.5684V33.1283H32.4119V39.0334Z" fill="#F7B92A"/>
<path fill-rule="evenodd" clip-rule="evenodd" d="M49.9783 34.1195V36.6292H47.6585C47.321 36.6292 47.0469 36.355 47.0469 36.0176V34.7522C47.0469 34.4148 47.321 34.1195 47.6585 34.1195H49.9783Z" fill="#FC3F6B"/>
<path fill-rule="evenodd" clip-rule="evenodd" d="M14.0215 34.8787V34.0351H18.0918L20.2851 31.8418C20.3695 31.7575 20.4749 31.7153 20.5804 31.7153H49.9793V32.5589H20.7491L18.5558 34.7522C18.4925 34.8365 18.387 34.8787 18.2605 34.8787H14.0215Z" fill="#FFC84B"/>
<path fill-rule="evenodd" clip-rule="evenodd" d="M47.8278 31.1037H44.9807C44.7487 31.1037 44.5589 30.9139 44.5589 30.6819V27.6661C44.5589 27.4341 44.7487 27.2443 44.9807 27.2443H47.8278C48.0597 27.2443 48.2495 27.4341 48.2495 27.6661V30.6819C48.2495 30.9139 48.0597 31.1037 47.8278 31.1037ZM42.1757 31.1037H39.3075C39.0756 31.1037 38.8858 30.9139 38.8858 30.6819V27.6661C38.8858 27.4341 39.0756 27.2443 39.3075 27.2443H42.1757C42.4077 27.2443 42.5975 27.4341 42.5975 27.6661V30.6819C42.5975 30.9139 42.4077 31.1037 42.1757 31.1037ZM36.5237 31.1037H33.6555C33.4235 31.1037 33.2337 30.9139 33.2337 30.6819V27.6661C33.2337 27.4341 33.4235 27.2443 33.6555 27.2443H36.5237C36.7557 27.2443 36.9244 27.4341 36.9244 27.6661V30.6819C36.9244 30.9139 36.7557 31.1037 36.5237 31.1037ZM30.8506 31.1037H28.0035C27.7715 31.1037 27.5817 30.9139 27.5817 30.6819V27.6661C27.5817 27.4341 27.7715 27.2443 28.0035 27.2443H30.8506C31.0826 27.2443 31.2724 27.4341 31.2724 27.6661V30.6819C31.2724 30.9139 31.0826 31.1037 30.8506 31.1037ZM25.1986 31.1037H22.3515C22.1195 31.1037 21.9297 30.9139 21.9297 30.6819V27.6661C21.9297 27.4341 22.1195 27.2443 22.3515 27.2443H25.1986C25.4306 27.2443 25.6204 27.4341 25.6204 27.6661V30.6819C25.6204 30.9139 25.4306 31.1037 25.1986 31.1037Z" fill="#62B4FE"/>
<path fill-rule="evenodd" clip-rule="evenodd" d="M20.623 32.5589C20.391 32.5589 20.2012 32.3691 20.2012 32.1371V25.4939C20.2012 25.2619 20.391 25.0721 20.623 25.0721C20.855 25.0721 21.0448 25.2619 21.0448 25.4939V32.1371C21.0448 32.3691 20.855 32.5589 20.623 32.5589Z" fill="#FFC84B"/>
<path fill-rule="evenodd" clip-rule="evenodd" d="M15.9192 36.9666H14.6327C14.4007 36.9666 14.2109 36.7768 14.2109 36.5448C14.2109 36.3129 14.4007 36.123 14.6327 36.123H15.9192C16.1512 36.123 16.341 36.3129 16.341 36.5448C16.341 36.7768 16.1512 36.9666 15.9192 36.9666Z" fill="#FC3F6B"/>
<path fill-rule="evenodd" clip-rule="evenodd" d="M41.6287 40.6995C40.0681 40.6995 38.8027 39.4341 38.8027 37.8735C38.8027 36.3339 40.0681 35.0685 41.6287 35.0685C43.1894 35.0685 44.4548 36.3339 44.4548 37.8735C44.4548 39.4341 43.1894 40.6995 41.6287 40.6995Z" fill="#504B5A"/>
<path fill-rule="evenodd" clip-rule="evenodd" d="M41.6271 39.3287C40.8257 39.3287 40.1719 38.6749 40.1719 37.8735C40.1719 37.0932 40.8257 36.4394 41.6271 36.4394C42.4285 36.4394 43.0612 37.0932 43.0612 37.8735C43.0612 38.6749 42.4285 39.3287 41.6271 39.3287Z" fill="#DCDBDE"/>
<path fill-rule="evenodd" clip-rule="evenodd" d="M20.6229 25.7891H49.9797V24.2496C49.9797 23.7223 49.5368 23.3005 48.9884 23.3005H17.0166C16.8478 23.3005 16.6791 23.406 16.6159 23.5747L15.8145 25.7891H20.6229Z" fill="#FFC84B"/>
<path fill-rule="evenodd" clip-rule="evenodd" d="M20.2007 31.9262V25.7891H15.8141L14.0426 30.6186C14.0215 30.6608 14.0215 30.703 14.0215 30.7663V34.0352H18.0918L20.2007 31.9262Z" fill="#62B4FE"/>
<path fill-rule="evenodd" clip-rule="evenodd" d="M22.3729 40.6995C20.8123 40.6995 19.5469 39.4341 19.5469 37.8735C19.5469 36.3339 20.8123 35.0685 22.3729 35.0685C23.9335 35.0685 25.1989 36.3339 25.1989 37.8735C25.1989 39.4341 23.9335 40.6995 22.3729 40.6995Z" fill="#504B5A"/>
<path fill-rule="evenodd" clip-rule="evenodd" d="M22.3732 39.3287C21.5717 39.3287 20.918 38.6749 20.918 37.8735C20.918 37.0932 21.5717 36.4394 22.3732 36.4394C23.1746 36.4394 23.8072 37.0932 23.8072 37.8735C23.8072 38.6749 23.1746 39.3287 22.3732 39.3287Z" fill="#DCDBDE"/>
<path fill-rule="evenodd" clip-rule="evenodd" d="M47.4904 40.6995H16.5097C16.2566 40.6995 16.0879 40.5097 16.0879 40.2777C16.0879 40.0457 16.2566 39.8559 16.5097 39.8559H47.4904C47.7223 39.8559 47.9121 40.0457 47.9121 40.2777C47.9121 40.5097 47.7223 40.6995 47.4904 40.6995Z" fill="#45414D"/>
</svg>
