<svg width="112" height="36" viewBox="0 0 112 36" fill="none" xmlns="http://www.w3.org/2000/svg">
<path d="M106.002 13.2416H111.1C110.455 8.27607 106.831 5.66602 101.795 5.66602C96.6979 5.66602 93.2894 8.37161 93.2894 13.0188C93.2894 18.3026 97.6805 19.4803 100.014 19.9579C103.024 20.5626 105.971 20.6263 105.971 23.2999C105.971 25.1143 104.498 26.0055 102.409 26.0055C99.8301 26.0055 98.1106 24.6687 97.6805 22.2497H92.6445C92.9515 27.4698 96.6059 30.2708 101.98 30.2708C106.954 30.2708 111.038 27.9155 111.038 22.8226C111.038 17.3477 106.34 16.361 103.054 15.8517C100.813 15.5016 98.3561 15.1833 98.3561 12.7323C98.3561 11.0135 99.6151 9.96316 101.734 9.96316C104.191 9.96316 105.664 11.3956 106.002 13.2416Z" fill="#403F41"/>
<path d="M89.8505 6.46191H85.0293V29.5388H89.8505V6.46191Z" fill="#403F41"/>
<path d="M70.4732 21.4856H76.7683C75.7856 23.9685 73.5746 25.146 71.0258 25.146C66.5427 25.146 64.4546 21.5493 64.4546 17.9843C64.4546 14.3874 66.4198 10.727 70.9952 10.727C73.7896 10.727 75.8776 12.0639 76.6761 14.4511L81.8656 14.4511C80.9751 9.07192 76.4304 5.98438 71.0567 5.98438C64.4239 5.98438 59.4492 10.6633 59.4492 18.048C59.4492 25.5281 64.8536 29.9525 71.0258 29.9525C77.106 29.9525 81.8656 25.8464 81.8656 19.4167V17.5387H70.4732V21.4856Z" fill="#403F41"/>
<path d="M48.4246 5.98438C42.8973 5.98438 38.8132 9.5811 38.8439 15.5652H43.8186C43.7571 12.9551 45.3538 10.5679 48.1789 10.5679C50.6356 10.5679 52.0788 12.3504 52.0788 14.3874C52.0788 16.4246 50.6356 17.5705 47.964 18.812C44.3098 20.4989 41.6998 21.5811 39.0281 22.5361V29.5387H57.6369V24.8278H44.8618C44.8618 24.8278 44.9043 24.814 44.9253 24.8075C47.0981 24.125 48.7306 23.3835 50.6663 22.5042C54.8118 20.5945 57.1763 18.2071 57.1763 14.1329C57.1763 9.13546 53.6142 5.98438 48.4246 5.98438Z" fill="#403F41"/>
<path d="M25.7635 21.4219C19.4992 21.4537 18.4858 25.3688 18.1481 28.6792L17.9946 30.1433H16.7355L16.582 28.6792C16.2443 25.3688 15.2002 21.4537 9.15079 21.4219C8.13747 19.2573 7.70756 17.5067 7.70756 15.5332C7.70756 10.5996 11.6074 5.98409 17.3803 5.98409C23.1533 5.98409 26.9918 10.5676 26.9918 15.5652C26.9918 17.5067 26.8076 19.2573 25.7635 21.4219ZM17.319 0C7.79977 0 0 8.08496 0 17.984C0 27.9152 7.79977 36 17.319 36C26.9303 36 34.6994 27.9152 34.6994 17.984C34.6994 8.08498 26.9303 0 17.319 0Z" fill="#29B24A"/>
</svg>
