<svg width="125" height="36" viewBox="0 0 125 36" fill="none" xmlns="http://www.w3.org/2000/svg">
<path d="M118.832 31.3473C121.278 31.3473 123.01 30.9058 124.3 29.9548V25.6417C122.976 26.5586 121.379 27.136 119.138 27.136C115.368 27.136 113.806 24.2152 113.806 19.5964C113.806 14.7398 115.708 12.2606 119.172 12.2606C121.21 12.2606 123.213 12.9738 124.266 13.653V9.17001C123.146 8.5587 121.21 8.11719 118.561 8.11719C111.802 8.11719 108.304 12.9738 108.304 19.7662C108.338 27.2039 111.768 31.3473 118.832 31.3473ZM85.7872 29.3775V25.0643C84.157 26.1851 81.3721 27.17 78.8249 27.17C74.9532 27.17 73.4929 25.336 73.2551 21.6002H86.0249V18.8153C86.0249 11.0379 82.5947 8.11719 77.3306 8.11719C70.8778 8.11719 67.8212 13.0417 67.8212 19.8002C67.8212 27.5775 71.6589 31.3473 78.3834 31.3473C81.7457 31.3473 84.2249 30.4303 85.7872 29.3775ZM37.3232 8.52473V17.3549H30.259V8.52473H24.9609V30.9058H30.259V21.5662H37.3232V30.9058H42.6213V8.52473H37.3232ZM66.4967 26.6945H64.1533V8.52473H48.7344V10.4266C48.7344 15.8945 48.3948 22.9586 46.5269 26.6945H44.8288V36.0001H49.7193V30.9058H61.5721V36.0001H66.4627V26.6945H66.4967ZM102.666 30.9058H108.678L100.187 18.8492L107.659 8.52473H102.327L94.855 18.8492V8.52473H89.557V30.9058H94.855V19.9021L102.666 30.9058ZM77.1947 12.2606C79.8098 12.2606 80.6249 14.4341 80.6249 17.253V17.6945H73.2551C73.391 14.1285 74.6815 12.2606 77.1947 12.2606ZM58.8552 26.6945H51.3835C52.8439 23.3322 53.2514 17.219 53.2514 13.3474V12.6681H58.8552V26.6945Z" fill="black"/>
<path d="M20.5471 30.9056H15.1471V4.17735H12.7358C8.32073 4.17735 6.0113 6.38489 6.0113 9.67921C6.0113 13.4151 7.60752 15.1471 10.9018 17.3547L13.6188 19.1886L5.80753 30.9056H0L7.03017 20.4452C2.98867 17.5584 0.713205 14.7396 0.713205 9.98487C0.713205 4.0415 4.85659 0 12.7018 0H20.5131V30.9056H20.5471Z" fill="#FC3F1D"/>
</svg>
