<svg width="64" height="11" viewBox="0 0 64 11" fill="none" xmlns="http://www.w3.org/2000/svg">
<path d="M11.7003 0C11.6327 1.6613 11.5989 3.44549 11.5989 5.35255C11.5989 7.25961 11.6327 9.04379 11.7003 10.7051H8.29735V2.97855H3.40293V10.7051H0C0.0772295 8.79803 0.115844 7.01385 0.115844 5.35255C0.115844 3.69124 0.0772295 1.90706 0 0H11.7003Z" fill="#0D0D0D"/>
<path d="M24.4822 0C24.4146 1.23861 24.3808 3.01787 24.3808 5.3378C24.3808 7.65773 24.4146 9.437 24.4822 10.6756H20.8331L20.8765 8.0067C19.805 8.7538 18.5596 9.12735 17.1405 9.12735C15.6346 9.12735 14.5534 8.76854 13.8969 8.05094C13.2501 7.33333 12.9267 6.29133 12.9267 4.92493V3.18499C12.9267 1.84808 12.9026 0.786416 12.8543 0H16.2862C16.2283 1.44504 16.1993 2.79178 16.1993 4.04021C16.1993 4.54155 16.2669 4.94459 16.402 5.24933C16.5468 5.55407 16.7834 5.78016 17.1116 5.92761C17.4495 6.07507 17.9177 6.14879 18.5162 6.14879C19.4912 6.14879 20.2828 5.83914 20.891 5.21984V3.7748C20.891 2.01519 20.8717 0.756925 20.8331 0H24.4822Z" fill="#0D0D0D"/>
<path d="M29.1856 0.0147451L28.9395 8.28686L32.4582 0.0147451H37.7871C37.7195 1.67605 37.6857 3.45532 37.6857 5.35255C37.6857 7.25961 37.7195 9.04379 37.7871 10.7051H34.0656L34.3262 2.65416L30.8219 10.7051H25.6379C25.7151 8.79803 25.7537 7.01385 25.7537 5.35255C25.7537 3.70107 25.7151 1.9218 25.6379 0.0147451H29.1856Z" fill="#0D0D0D"/>
<path d="M50.8912 10.7051H47.2276V2.89008H43.9839L43.9695 3.74531C43.9695 4.4924 43.9502 5.15103 43.9115 5.72118C43.8826 6.2815 43.815 6.85657 43.7088 7.44638C43.5157 8.51787 43.0234 9.37802 42.2318 10.0268C41.4498 10.6756 40.3542 11 38.9447 11V8.12466C39.3212 8.04602 39.6156 7.87399 39.828 7.60858C40.0501 7.33333 40.219 6.89589 40.3349 6.29625C40.4217 5.81457 40.4652 4.7185 40.4652 3.00804L40.4507 0L50.8912 0.0147451V10.7051Z" fill="#0D0D0D"/>
<path d="M64 10.7051H60.3364V2.89008H57.0928L57.0783 3.74531C57.0783 4.4924 57.059 5.15103 57.0204 5.72118C56.9914 6.2815 56.9238 6.85657 56.8177 7.44638C56.6246 8.51787 56.1322 9.37802 55.3406 10.0268C54.5587 10.6756 53.463 11 52.0536 11V8.12466C52.4301 8.04602 52.7245 7.87399 52.9369 7.60858C53.1589 7.33333 53.3278 6.89589 53.4437 6.29625C53.5306 5.81457 53.574 4.7185 53.574 3.00804L53.5595 0L64 0.0147451V10.7051Z" fill="#0D0D0D"/>
</svg>
