<svg width="64" height="64" viewBox="0 0 64 64" fill="none" xmlns="http://www.w3.org/2000/svg">
<circle cx="32" cy="32" r="32" fill="white"/>
<g clip-path="url(#clip0_350_138)">
<path d="M54.6736 31.271C54.497 31.2711 54.3237 31.2235 54.1719 31.1331C54.0202 31.0428 53.8958 30.9131 53.8117 30.7578C52.2067 27.7969 48.6784 26.4795 45.6042 27.6924C45.4845 27.7396 45.3568 27.7628 45.2282 27.7607C45.0995 27.7585 44.9726 27.731 44.8546 27.6798C44.7366 27.6285 44.6299 27.5545 44.5405 27.462C44.4511 27.3695 44.3809 27.2603 44.3337 27.1406C44.2865 27.021 44.2633 26.8933 44.2654 26.7647C44.2675 26.6361 44.295 26.5092 44.3462 26.3912C44.3974 26.2732 44.4713 26.1665 44.5637 26.0771C44.6562 25.9877 44.7653 25.9174 44.8849 25.8701C48.8796 24.2935 53.4577 25.9931 55.5339 29.8243C55.5953 29.9374 55.6337 30.0615 55.6471 30.1894C55.6605 30.3174 55.6485 30.4468 55.6118 30.5701C55.5752 30.6934 55.5146 30.8084 55.4335 30.9083C55.3524 31.0082 55.2525 31.0911 55.1393 31.1524C54.9964 31.2301 54.8363 31.2709 54.6736 31.271ZM43.5427 24.6192C43.3861 24.6194 43.2317 24.582 43.0926 24.5102C42.9534 24.4385 42.8335 24.3344 42.7428 24.2067C42.4299 23.7657 42.5334 23.1538 42.9743 22.8409C45.6692 20.9273 46.4904 17.2515 44.8854 14.2905C44.8241 14.1774 44.7856 14.0533 44.7723 13.9254C44.7589 13.7974 44.7709 13.6681 44.8075 13.5447C44.8441 13.4214 44.9047 13.3065 44.9858 13.2066C45.0668 13.1066 45.1668 13.0237 45.2799 12.9624C45.7556 12.7047 46.3498 12.8814 46.6081 13.3569C48.6843 17.1875 47.6101 21.9517 44.1091 24.438C43.9438 24.5561 43.7458 24.6194 43.5427 24.6192ZM42.4952 40.2441C42.1349 40.2441 41.7761 40.2085 41.4246 40.1363L39.4254 39.7238C39.2995 39.6978 39.1798 39.6472 39.0734 39.575C38.9669 39.5028 38.8758 39.4103 38.8051 39.3028C38.7344 39.1953 38.6855 39.075 38.6614 38.9486C38.6372 38.8223 38.6382 38.6924 38.6642 38.5664C38.7167 38.3119 38.8681 38.0887 39.0851 37.9459C39.3021 37.803 39.567 37.7522 39.8214 37.8046L41.8204 38.2173C42.8816 38.4365 44.1076 38.1045 45.0212 37.3506C46.4016 36.2119 48.2126 35.7354 49.8644 36.0762L50.2986 36.1662C50.8283 36.2749 51.1692 36.7935 51.0598 37.3233C51.0073 37.5777 50.8558 37.8008 50.6388 37.9435C50.4218 38.0863 50.157 38.137 49.9026 38.0845L49.4689 37.9951C48.4074 37.7759 47.1814 38.1084 46.2677 38.8619C45.1814 39.7583 43.8283 40.2441 42.4952 40.2441ZM24.6331 52.185C24.6198 52.185 24.6071 52.185 24.5939 52.1841C24.4654 52.1792 24.3391 52.1489 24.2222 52.0951C24.1054 52.0413 24.0002 51.965 23.9129 51.8705C23.8256 51.7761 23.7577 51.6653 23.7132 51.5446C23.6687 51.4239 23.6484 51.2956 23.6536 51.167C23.7404 48.94 24.9484 46.9508 26.8854 45.8466C27.5426 45.4716 28.094 44.936 28.4879 44.29C28.7245 43.8993 28.8999 43.4746 29.0079 43.0308C29.0377 42.905 29.0921 42.7864 29.1679 42.6818C29.2436 42.5771 29.3394 42.4885 29.4496 42.421C29.5598 42.3536 29.6822 42.3085 29.8099 42.2886C29.9375 42.2686 30.0679 42.2741 30.1934 42.3047C30.3189 42.3354 30.4372 42.3905 30.5413 42.467C30.6454 42.5435 30.7334 42.6399 30.8001 42.7505C30.8668 42.8612 30.911 42.9839 30.9301 43.1117C30.9492 43.2395 30.9428 43.3698 30.9113 43.4951C30.756 44.134 30.5034 44.7451 30.1623 45.3071C29.5956 46.2376 28.8019 47.009 27.8557 47.5489C26.5109 48.3154 25.6716 49.6968 25.6111 51.2436C25.6013 51.4965 25.494 51.7358 25.3116 51.9113C25.1293 52.0868 24.886 52.1849 24.6329 52.185H24.6331ZM32.0012 51.8399C31.7931 51.8396 31.5905 51.7732 31.4227 51.6502C31.2549 51.5273 31.1305 51.3541 31.0676 51.1558C30.3947 49.0308 30.8571 46.75 32.3049 45.0543C32.7962 44.4788 33.1334 43.7882 33.2849 43.0469C33.3751 42.5991 33.3961 42.1402 33.3474 41.686C33.3337 41.5581 33.3453 41.4288 33.3816 41.3054C33.4179 41.182 33.4781 41.0669 33.5588 40.9668C33.6396 40.8667 33.7393 40.7835 33.8522 40.7219C33.9651 40.6603 34.0891 40.6216 34.2169 40.6079C34.3448 40.5942 34.4742 40.6058 34.5976 40.642C34.721 40.6783 34.8361 40.7386 34.9362 40.8193C35.0363 40.9001 35.1195 40.9998 35.1811 41.1127C35.2427 41.2257 35.2814 41.3496 35.2951 41.4775C35.3655 42.1313 35.3351 42.792 35.2048 43.4365C34.9869 44.504 34.5015 45.4986 33.7942 46.3271C32.7892 47.5044 32.4679 49.0884 32.9352 50.564C32.9818 50.7108 32.9931 50.8666 32.9682 51.0186C32.9433 51.1706 32.8829 51.3146 32.7919 51.4389C32.7009 51.5632 32.5819 51.6643 32.4445 51.734C32.3071 51.8036 32.1552 51.8399 32.0012 51.8399ZM25.1374 25.2423C24.991 25.2426 24.8464 25.21 24.7143 25.1468C24.5822 25.0837 24.4659 24.9916 24.3742 24.8775C24.0872 24.5215 23.7473 24.2116 23.3664 23.9585C22.7355 23.5421 22.0092 23.2924 21.2556 23.2329C19.0324 23.0577 17.0924 21.772 16.0661 19.7935C15.9464 19.5629 15.9233 19.2941 16.0018 19.0464C16.0803 18.7987 16.2539 18.5923 16.4846 18.4727C16.9646 18.2242 17.5558 18.4112 17.8049 18.8911C18.5178 20.2652 19.8654 21.1583 21.4089 21.2799C22.4943 21.3658 23.54 21.7256 24.4484 22.3257C24.9969 22.6895 25.4861 23.1355 25.8991 23.648C26.2391 24.0689 26.1726 24.6855 25.7516 25.0255C25.5777 25.1659 25.3609 25.2423 25.1374 25.2421V25.2423ZM30.3577 22.65C30.2353 22.6501 30.114 22.6271 30.0002 22.582C29.8804 22.5351 29.7711 22.465 29.6784 22.3758C29.5857 22.2866 29.5115 22.18 29.4601 22.0621C29.4086 21.9442 29.3808 21.8173 29.3784 21.6887C29.376 21.5601 29.3989 21.4323 29.4459 21.3125L30.1911 19.4125C30.8073 17.8418 32.1951 16.5845 33.9026 16.0494C35.0324 15.6953 35.9801 14.8492 36.3757 13.8409L36.5373 13.4283C36.5843 13.3085 36.6544 13.1991 36.7437 13.1064C36.8329 13.0137 36.9396 12.9395 37.0575 12.8881C37.1754 12.8366 37.3024 12.8089 37.431 12.8064C37.5597 12.804 37.6875 12.827 37.8073 12.874C38.0491 12.9691 38.2433 13.1562 38.3473 13.3943C38.4512 13.6325 38.4563 13.9021 38.3616 14.144L38.1999 14.5562C37.5837 16.127 36.1959 17.3843 34.4884 17.9194C33.3586 18.273 32.4109 19.1196 32.0148 20.1279L31.2698 22.0279C31.1979 22.2113 31.0724 22.3687 30.9097 22.4797C30.7469 22.5906 30.5545 22.6499 30.3576 22.6499L30.3577 22.65ZM14.6389 28.8379C13.5031 28.8379 12.3708 28.5328 11.3542 27.9258C11.1312 27.7925 10.9702 27.5762 10.9067 27.3243C10.8432 27.0724 10.8823 26.8056 11.0154 26.5825C11.1486 26.3595 11.365 26.1985 11.6169 26.135C11.8687 26.0715 12.1355 26.1106 12.3586 26.2438C13.6877 27.0371 15.3034 27.0884 16.6803 26.3794C17.6485 25.8819 18.7271 25.6379 19.8152 25.6704C20.473 25.6911 21.1236 25.8129 21.7443 26.0317C21.9893 26.1179 22.1901 26.298 22.3024 26.5322C22.4148 26.7664 22.4295 27.0357 22.3434 27.2808C22.1638 27.7915 21.6042 28.0595 21.0944 27.8799C20.6631 27.7281 20.2111 27.6433 19.7541 27.6284C18.9984 27.6056 18.2493 27.7753 17.5773 28.1217C16.6472 28.5997 15.6419 28.8379 14.6389 28.8379Z" fill="#3A3D51"/>
<path d="M35.2209 41.77C27.6901 45.8525 19.5592 45.6216 16.3815 41.4185C16.1833 41.1571 16.0052 40.8811 15.8487 40.5927C15.6917 40.3051 15.5576 40.0055 15.4479 39.6967C13.6597 34.7402 17.9059 27.8022 25.4366 23.7192C33.4327 19.3842 42.107 19.9106 44.8077 24.8945C47.5104 29.8804 43.2184 37.4345 35.2209 41.77Z" fill="#71C799"/>
<path d="M15.8494 40.5932C13.1472 35.6089 17.4402 28.0537 25.4372 23.7187C33.4347 19.3837 42.1072 19.9112 44.8088 24.8955C43.8375 23.1035 36.5675 25.1641 28.5705 29.499C20.573 33.834 14.8778 38.8012 15.8494 40.5932Z" fill="#33A39D"/>
<path d="M41.2279 37.2592C41.4061 34.1534 40.7411 30.936 39.1341 27.9712C37.5266 25.0062 35.1938 22.6929 32.4941 21.147C38.016 20.0786 42.9008 21.376 44.8085 24.895C46.7163 28.414 45.1371 33.2159 41.2279 37.2592Z" fill="#65687F"/>
<path d="M32.4941 21.147C34.3824 22.228 36.0899 23.6855 37.4961 25.4775C41.3921 24.1304 44.227 23.8233 44.8081 24.8955L44.7964 24.875C42.8814 21.3716 38.0054 20.081 32.4941 21.147Z" fill="#3A3D51"/>
<path d="M41.6218 27.7369L16.3809 41.4185C16.1827 41.1571 16.0046 40.8811 15.8481 40.5928C15.6911 40.3051 15.5571 40.0055 15.4473 39.6968L40.688 26.0152C41.1645 25.7569 41.7588 25.9332 42.0161 26.4097C42.2749 26.8853 42.0973 27.4795 41.6218 27.7369Z" fill="#65687F"/>
<path d="M32 0C14.3266 0 0 14.3266 0 32C0 49.6734 14.3266 64 32 64C49.6734 64 64 49.6734 64 32C64 14.3266 49.6734 0 32 0ZM5.75588 32C5.75588 23.1055 10.1816 15.2461 16.9496 10.4995L42.002 56.2685C38.919 57.5405 35.542 58.2436 32 58.2436C17.5059 58.2441 5.75588 46.4941 5.75588 32ZM47.0494 53.501L21.9975 7.7315C25.08 6.4595 28.458 5.75588 32 5.75588C46.4941 5.75588 58.2426 17.5059 58.2426 32C58.2426 40.8945 53.8174 48.7544 47.0494 53.501Z" fill="#FF5A73"/>
</g>
<defs>
<clipPath id="clip0_350_138">
<rect width="64" height="64" fill="white"/>
</clipPath>
</defs>
</svg>
