<svg width="64" height="64" viewBox="0 0 64 64" fill="none" xmlns="http://www.w3.org/2000/svg">
<circle cx="32" cy="32" r="29.5" fill="white" stroke="#528FD8" stroke-width="5"/>
<path d="M46.7425 47.9546H17.2575C16.0108 47.9546 15 46.9439 15 45.697V35.1276C15 33.8808 16.0108 32.8701 17.2575 32.8701H46.7425C47.9892 32.8701 49 33.8808 49 35.1276V45.697C49 46.9439 47.9892 47.9546 46.7425 47.9546Z" fill="#528FD8"/>
<path d="M31.9959 35.7784C31.4858 35.7784 31.0724 36.1919 31.0724 36.7019V44.1532C31.0724 44.6633 31.4859 45.0768 31.9959 45.0768C32.5059 45.0768 32.9194 44.6632 32.9194 44.1532V36.702C32.9194 36.1919 32.506 35.7784 31.9959 35.7784ZM40.6745 37.5948C41.1845 37.5948 41.598 37.1813 41.598 36.6713C41.598 36.1613 41.1845 35.7478 40.6745 35.7478H37.1036C36.5935 35.7478 36.1801 36.1613 36.1801 36.6713V44.1226C36.1801 44.6327 36.5936 45.0461 37.1036 45.0461C37.6136 45.0461 38.0271 44.6326 38.0271 44.1226V40.8064H40.6744C41.1845 40.8064 41.5979 40.3929 41.5979 39.8829C41.5979 39.3729 41.1844 38.9593 40.6744 38.9593H38.0271V37.5949L40.6745 37.5948ZM45.0089 35.7477C44.4989 35.7477 44.0854 36.1613 44.0854 36.6713V44.1226C44.0854 44.6326 44.4989 45.0461 45.0089 45.0461C45.519 45.0461 45.9324 44.6326 45.9324 44.1226V36.6713C45.9324 36.1613 45.5189 35.7477 45.0089 35.7477ZM27.8102 35.8774C27.3165 35.7496 26.8125 36.0462 26.6847 36.54L25.3204 41.8098L24.0153 39.8796C23.9307 39.7545 23.8168 39.6521 23.6834 39.5812C23.55 39.5104 23.4013 39.4734 23.2503 39.4734C23.0993 39.4734 22.9505 39.5104 22.8172 39.5812C22.6838 39.6521 22.5698 39.7545 22.4852 39.8796L21.1801 41.8098L19.8159 36.54C19.688 36.0462 19.1841 35.7495 18.6903 35.8774C18.1966 36.0052 17.8999 36.5091 18.0277 37.0029L19.9049 44.2539C19.9494 44.426 20.0426 44.5816 20.1734 44.702C20.3042 44.8224 20.467 44.9025 20.6421 44.9326C20.8173 44.9628 20.9975 44.9418 21.161 44.8721C21.3245 44.8024 21.4645 44.687 21.564 44.5397L23.2503 42.0458L24.9365 44.5397C25.0361 44.687 25.176 44.8025 25.3395 44.8722C25.5031 44.9419 25.6832 44.9629 25.8584 44.9327C26.0336 44.9026 26.1964 44.8225 26.3271 44.702C26.4579 44.5816 26.5512 44.426 26.5957 44.2539L28.4729 37.0029C28.6006 36.5091 28.304 36.0052 27.8102 35.8774Z" fill="#EBEBEB"/>
<path d="M28.6187 29.1974C29.0297 29.5304 29.588 29.5077 29.9861 29.1567C30.5295 28.6775 31.2177 28.3896 31.9674 28.3861C32.7172 28.3826 33.408 28.6639 33.9559 29.1381C34.3572 29.4853 34.9157 29.5028 35.3235 29.1659C35.9056 28.6852 35.9274 27.7205 35.3577 27.2207C34.4228 26.4003 33.2395 25.9119 31.9559 25.918C30.6722 25.924 29.4936 26.4235 28.5664 27.2526C28.0014 27.7577 28.0321 28.7222 28.6187 29.1974Z" fill="#838383"/>
<path d="M24.9684 26.2289L24.9692 26.2296C25.4265 26.6001 26.0562 26.527 26.4474 26.0742C27.8364 24.4668 29.7913 23.46 31.9581 23.4498C34.125 23.4397 36.0892 24.428 37.4931 26.0224C37.8885 26.4714 38.5189 26.5386 38.9727 26.1639L38.9735 26.1632C39.5126 25.718 39.5743 24.8504 39.1053 24.3161C37.2917 22.25 34.7504 20.9686 31.9466 20.9818C29.1428 20.9949 26.6136 22.3002 24.8193 24.3833C24.3554 24.9219 24.4251 25.7889 24.9684 26.2289Z" fill="#5A5A5A"/>
<path d="M21.3581 23.2936L21.3592 23.2945C21.8252 23.672 22.4764 23.5963 22.8559 23.1157C25.0696 20.3116 28.3215 18.5307 31.9482 18.5137C35.5749 18.4966 38.8433 20.2469 41.083 23.0301C41.4669 23.5072 42.1188 23.5768 42.5812 23.1949L42.5823 23.1939C43.1043 22.7629 43.184 21.929 42.7507 21.3906C40.0988 18.0967 36.2299 16.0254 31.9367 16.0456C27.6435 16.0657 23.794 18.1733 21.173 21.4919C20.7446 22.0343 20.8322 22.8675 21.3581 23.2936Z" fill="#444444"/>
<path d="M31.9663 33.9572C32.7351 33.9572 33.3584 33.3314 33.3584 32.5595C33.3584 31.7875 32.7351 31.1617 31.9663 31.1617C31.1975 31.1617 30.5742 31.7875 30.5742 32.5595C30.5742 33.3314 31.1975 33.9572 31.9663 33.9572Z" fill="#444444"/>
</svg>
